# Made in Blockbench 4.12.3
mtllib Env_Wall_Church_Window.mtl

o cube
v 0.5 3.0000000000000004 -1.4999999999999993
v 0.5 3.3306690738754696e-16 -1.5
v 0.5 3 0.5000000000000007
v 0.5 -1.1102230246251565e-16 0.5
v -0.5 3.0000000000000004 -1.4999999999999993
v -0.5 3.3306690738754696e-16 -1.5
v -0.5 3 0.5000000000000007
v -0.5 -1.1102230246251565e-16 0.5
v -0.5 2.1875000000000004 -1.2499999999999996
v -0.5 0.2500000000000003 -1.25
v -0.5 2.1875 0.2500000000000005
v -0.5 0.24999999999999994 0.25000000000000006
v -0.5 2.8125 -0.4999999999999994
v -0.5 0.2500000000000001 -0.49999999999999994
v -0.5 1.1102230246251565e-16 -0.5
v 0.5 1.1102230246251565e-16 -0.5
v 0.5 3 -0.49999999999999933
v -0.5 3 -0.49999999999999933
v -0.5 2.5625 -0.9999999999999994
v -0.5 0.2500000000000002 -1
v -0.5 2.220446049250313e-16 -1
v 0.5 2.220446049250313e-16 -1
v 0.5 3 -0.9999999999999993
v -0.5 3 -0.9999999999999993
v -0.5 2.5625 5.689893001203927e-16
v -0.5 0.25 5.551115123125783e-17
v -0.5 0 0
v 0.5 0 0
v 0.5 3 6.661338147750939e-16
v -0.5 3 6.661338147750939e-16
v -0.25 2.153125 0.12500000000000047
v -0.25 2.384375 -0.04166666666666616
v -0.25 0.4375 -0.04166666666666659
v -0.25 0.4375 0.1250000000000001
v -0.25 0.4375000000000002 -1.125
v -0.25 2.384375 -0.9583333333333327
v -0.25 0.4375000000000002 -0.9583333333333331
v -0.25 2.1531250000000006 -1.1249999999999996
v -0.25 2.625 -0.49999999999999944
v -0.25 0.4375000000000001 -0.4999999999999999
vt 0 1
vt 0 0.9375
vt 0.375 0.9375
vt 0.375 1
vt 0.046875 0.6953125
vt 0.046875 0.6744789062500001
vt 0.290234375 0.6744789062500001
vt 0.261328125 0.6953125
vt 0.5078125 0.625
vt 0.5078125 1
vt 0.3828125 1
vt 0.3828125 0.625
vt 0.5078125 0.2421875
vt 0.5078125 0.6171875
vt 0.3828125 0.6171875
vt 0.3828125 0.2421875
vt 0 0.484375
vt 0 0.421875
vt 0.125 0.421875
vt 0.125 0.484375
vt 0.515625 1
vt 0.515625 0.9375
vt 0.640625 0.9375
vt 0.640625 1
vt 0.2734375 0.7109375
vt 0.3203125 0.6796875
vt 0.375 0.6796875
vt 0.375 0.7421875
vt 0.03125 0.7109375
vt 0.2734375 0.7109375
vt 0.375 0.7421875
vt 0 0.7421875
vt 0 0.7421875
vt 0 0.6796875
vt 0.03125 0.6796875
vt 0.03125 0.7109375
vt 0.2734375 0.5234375
vt 0.03125 0.5234375
vt 0 0.4921875
vt 0.375 0.4921875
vt 0.046875 0.6171875
vt 0.046875 0.5598960937499999
vt 0.290234375 0.5598960937499999
vt 0.3203125 0.6171875
vt 0 0.6171875
vt 0 0.5546875
vt 0.03125 0.5546875
vt 0.03125 0.6171875
vt 0.515625 0.875
vt 0.515625 0.8125
vt 0.640625 0.8125
vt 0.640625 0.875
vt 0 0.875
vt 0 0.8125
vt 0.375 0.8125
vt 0.375 0.875
vt 0 0.359375
vt 0 0.296875
vt 0.125 0.296875
vt 0.125 0.359375
vt 0.3515625 0.6171875
vt 0.3203125 0.5546875
vt 0.375 0.5546875
vt 0.375 0.6171875
vt 0.3203125 0.6171875
vt 0.290234375 0.6744789062500001
vt 0.046875 0.6744789062500001
vt 0.046875 0.6171875
vt 0.03125 0.6171875
vt 0.03125 0.6796875
vt 0 0.6796875
vt 0 0.6171875
vt 0.640625 0.875
vt 0.640625 0.9375
vt 0.515625 0.9375
vt 0.515625 0.875
vt 0.375 0.875
vt 0.375 0.9375
vt 0 0.9375
vt 0 0.875
vt 0.125 0.359375
vt 0.125 0.421875
vt 0 0.421875
vt 0 0.359375
vt 0.375 0.6171875
vt 0.375 0.6796875
vt 0.3203125 0.6796875
vt 0.3515625 0.6171875
vt 0.261328125 0.5390625
vt 0.290234375 0.5598960937499999
vt 0.046875 0.5598960937499999
vt 0.046875 0.5390625
vt 0.03125 0.5234375
vt 0.03125 0.5546875
vt 0 0.5546875
vt 0 0.4921875
vt 0.640625 0.75
vt 0.640625 0.8125
vt 0.515625 0.8125
vt 0.515625 0.75
vt 0.375 0.75
vt 0.375 0.8125
vt 0 0.8125
vt 0 0.75
vt 0.125 0.234375
vt 0.125 0.296875
vt 0 0.296875
vt 0 0.234375
vt 0.375 0.4921875
vt 0.375 0.5546875
vt 0.3203125 0.5546875
vt 0.2734375 0.5234375
vt 0.171875 0.44791640624999995
vt 0.171875 0.46875
vt 0.1328125 0.484375
vt 0.1328125 0.453125
vt 0.7536995483517143 0.7052879293076348
vt 0.7879065099280459 0.6953125
vt 0.8123160766482858 0.725372019116131
vt 0.757990831500878 0.7401807427101352
vt 0.5392464233517142 0.7052879293076348
vt 0.7536995483517143 0.7052879293076348
vt 0.7579964233517142 0.7402262105576347
vt 0.5158089233517142 0.7402262105576347
vt 0.171875 0.33333359374999993
vt 0.171875 0.390625
vt 0.1328125 0.390625
vt 0.1328125 0.328125
vt 0.24691762978171325 0.484375
vt 0.18221067629360724 0.484375
vt 0.1879491892455743 0.44608032691352095
vt 0.2578125 0.44688007877071667
vt 0.2664097421418985 0.4818519344119182
vt 0.2664097421418985 0.41714451691948506
vt 0.3039222521531075 0.40625
vt 0.3046875 0.47611342287066594
vt 0.171875 0.390625
vt 0.171875 0.44791640624999995
vt 0.1328125 0.453125
vt 0.1328125 0.390625
vt 0.7879165638328588 0.6875
vt 0.7537082675926374 0.6775306530556156
vt 0.7580051239643362 0.6425917420274134
vt 0.8123073574073626 0.6574820123613798
vt 0.171875 0.3125
vt 0.171875 0.33333359374999993
vt 0.1328125 0.328125
vt 0.1328125 0.296875
vt 0.7537082675926374 0.6775306530556156
vt 0.5392551425926374 0.6775306530556156
vt 0.5158176425926374 0.6425915905556155
vt 0.7580051425926374 0.6425915905556155
vn 1 0 0
vn -1 0 0
vn 0 2.220446049250313e-16 -1
vn 0 -2.220446049250313e-16 1
vn 0 1 2.220446049250313e-16
vn 0 -1 -2.220446049250313e-16
vn -1 0 0
vn -1 0 0
vn -1 0 0
vn -1 0 0
vn -1 0 0
vn -1 0 0
vn 0 -1 -2.220446049250313e-16
vn 1 0 0
vn 0 1 2.220446049250313e-16
vn -1 0 0
vn -1 0 0
vn -1 0 0
vn 0 -1 -2.220446049250313e-16
vn 1 0 0
vn 0 1 2.220446049250313e-16
vn -1 0 0
vn -1 0 0
vn -1 0 0
vn 0 -1 -2.220446049250313e-16
vn 1 0 0
vn 0 1 2.220446049250313e-16
vn -1 0 0
vn -0.6 0.8 1.7763568394002506e-16
vn -0.4831288886609992 -0.5119246502368201 0.7102954522035865
vn -0.44721359549995804 -1.9860273225978188e-16 0.8944271909999161
vn -0.6000000000000001 0.8 1.7763568394002506e-16
vn -0.5780091838712238 -0.7225114798390292 -0.3793185269154907
vn -0.5531892633644168 -0.7375856844858891 0.3872324843550918
vn -0.6000000000000001 0.8 1.7763568394002506e-16
vn -0.4371288515684086 -0.5258692951198909 -0.7296436469788479
vn -0.6 0.8 1.7763568394002506e-16
vn -0.44721359549995804 1.9860273225978188e-16 -0.8944271909999161
usemtl m_953329ef-35a3-8204-5af0-7e2fa520dd5c
f 1/1/1 23/2/1 22/3/1 2/4/1
f 35/5/2 37/6/2 36/7/2 38/8/2
f 1/9/3 2/10/3 6/11/3 5/12/3
f 4/13/4 3/14/4 7/15/4 8/16/4
f 5/17/5 24/18/5 23/19/5 1/20/5
f 2/21/6 22/22/6 21/23/6 6/24/6
f 9/25/7 19/26/7 24/27/7 5/28/7
f 10/29/8 9/30/8 5/31/8 6/32/8
f 6/33/9 21/34/9 20/35/9 10/36/9
f 11/37/10 12/38/10 8/39/10 7/40/10
f 40/41/11 33/42/11 32/43/11 39/44/11
f 15/45/12 27/46/12 26/47/12 14/48/12
f 16/49/13 28/50/13 27/51/13 15/52/13
f 17/53/14 29/54/14 28/55/14 16/56/14
f 18/57/15 30/58/15 29/59/15 17/60/15
f 13/61/16 25/62/16 30/63/16 18/64/16
f 39/65/17 36/66/17 37/67/17 40/68/17
f 14/69/18 20/70/18 21/71/18 15/72/18
f 15/73/19 21/74/19 22/75/19 16/76/19
f 16/77/20 22/78/20 23/79/20 17/80/20
f 17/81/21 23/82/21 24/83/21 18/84/21
f 18/85/22 24/86/22 19/87/22 13/88/22
f 31/89/23 32/90/23 33/91/23 34/92/23
f 12/93/24 26/94/24 27/95/24 8/96/24
f 8/97/25 27/98/25 28/99/25 4/100/25
f 4/101/26 28/102/26 29/103/26 3/104/26
f 3/105/27 29/106/27 30/107/27 7/108/27
f 7/109/28 30/110/28 25/111/28 11/112/28
f 37/113/29 35/114/29 10/115/29 20/116/29
f 38/117/30 36/118/30 19/119/30 9/120/30
f 35/121/31 38/122/31 9/123/31 10/124/31
f 33/125/32 40/126/32 14/127/32 26/128/32
f 39/129/33 32/130/33 25/131/33 13/132/33
f 36/133/34 39/134/34 13/135/34 19/136/34
f 40/137/35 37/138/35 20/139/35 14/140/35
f 32/141/36 31/142/36 11/143/36 25/144/36
f 34/145/37 33/146/37 26/147/37 12/148/37
f 31/149/38 34/150/38 12/151/38 11/152/38