# Made in Blockbench 4.10.4
mtllib Obj_Scaffolding.mtl

o cube
v 1.4312184335382292 1.0580582617584078 1.4375
v 1.4312184335382292 1.0580582617584078 1.3125
v 1.2544417382415922 0.8812815664617708 1.4375
v 1.2544417382415922 0.8812815664617708 1.3125
v 0.7683058261758408 1.720970869120796 1.4375
v 0.7683058261758408 1.720970869120796 1.3125
v 0.5915291308792039 1.5441941738241591 1.4375
v 0.5915291308792039 1.5441941738241591 1.3125
v -0.25 1.9999999999999998 -0.25
v -0.25 1.9999999999999998 -0.5
v -0.25 0 -0.25
v -0.25 0 -0.5
v -0.5 2 -0.25
v -0.5 2 -0.5
v -0.4999999999999998 0 -0.25
v -0.4999999999999998 0 -0.5
v -0.25 1.9999999999999998 1.5
v -0.25 1.9999999999999998 1.25
v -0.25 0 1.5
v -0.25 0 1.25
v -0.5 2 1.5
v -0.5 2 1.25
v -0.4999999999999998 0 1.5
v -0.4999999999999998 0 1.25
v 1.5 2 -0.25
v 1.5 2 -0.5
v 1.5000000000000002 0 -0.25
v 1.5000000000000002 0 -0.5
v 1.25 2 -0.25
v 1.25 2 -0.5
v 1.25 0 -0.25
v 1.25 0 -0.5
v 1.5 2 1.5
v 1.5 2 1.25
v 1.5000000000000002 0 1.5
v 1.5000000000000002 0 1.25
v 1.25 2 1.5
v 1.25 2 1.25
v 1.25 0 1.5
v 1.25 0 1.25
v -0.25 1.7499999999999998 1.25
v -0.25 1.7499999999999998 -0.25
v -0.25 1.5000000000000002 1.25
v -0.25 1.5000000000000002 -0.25
v -0.5 1.75 1.25
v -0.5 1.75 -0.25
v -0.5 1.5 1.25
v -0.5 1.5 -0.25
v 1.5 1.75 1.25
v 1.5 1.75 -0.25
v 1.5000000000000002 1.5000000000000002 1.25
v 1.5000000000000002 1.5000000000000002 -0.25
v 1.25 1.75 1.25
v 1.25 1.75 -0.25
v 1.25 1.5 1.25
v 1.25 1.5 -0.25
v 1.25 1.75 -0.25
v 1.25 1.75 -0.5
v 1.25 1.5 -0.25
v 1.25 1.5 -0.5
v -0.25 1.7499999999999998 -0.25
v -0.25 1.7499999999999998 -0.5
v -0.25 1.5000000000000002 -0.25
v -0.25 1.5000000000000002 -0.5
v 1.25 1.75 1.5
v 1.25 1.75 1.25
v 1.25 1.5 1.5
v 1.25 1.5 1.25
v -0.25 1.7499999999999998 1.5
v -0.25 1.7499999999999998 1.25
v -0.25 1.5000000000000002 1.5
v -0.25 1.5000000000000002 1.25
v 0.25444173824159233 1.7437184335382292 1.4375
v 0.25444173824159233 1.7437184335382292 1.3125
v 0.4312184335382293 1.5669417382415922 1.4375
v 0.4312184335382293 1.5669417382415922 1.3125
v -0.45266504294495524 1.0366116523516815 1.4375
v -0.45266504294495524 1.0366116523516815 1.3125
v -0.27588834764831827 0.8598349570550445 1.4375
v -0.27588834764831827 0.8598349570550445 1.3125
v 0.2102475644174333 1.6995242597140698 -0.3125
v 0.2102475644174333 1.6995242597140698 -0.4375
v 0.38702425971406995 1.522747564417433 -0.3125
v 0.38702425971406995 1.522747564417433 -0.4375
v -0.45266504294495524 1.0366116523516815 -0.3125
v -0.45266504294495524 1.0366116523516815 -0.4375
v -0.27588834764831827 0.8598349570550445 -0.3125
v -0.27588834764831827 0.8598349570550445 -0.4375
v 1.4312184335382292 1.0580582617584078 -0.3125
v 1.4312184335382292 1.0580582617584078 -0.4375
v 1.2544417382415922 0.8812815664617708 -0.3125
v 1.2544417382415922 0.8812815664617708 -0.4375
v 0.7683058261758408 1.720970869120796 -0.3125
v 0.7683058261758408 1.720970869120796 -0.4375
v 0.5915291308792041 1.5441941738241591 -0.3125
v 0.5915291308792041 1.5441941738241591 -0.4375
vt 0.171875 0.8515625
vt 0.171875 0.8828125
vt 0.15625 0.8828125
vt 0.15625 0.8515625
vt 0.171875 0.8515625
vt 0.171875 0.8828125
vt 0.15625 0.8828125
vt 0.15625 0.8515625
vt 0.2734375 0.890625
vt 0.2734375 0.90625
vt 0.15625 0.90625
vt 0.15625 0.890625
vt 0.2734375 0.91015625
vt 0.2734375 0.92578125
vt 0.15625 0.92578125
vt 0.15625 0.91015625
vt 0.609375 0.96875
vt 0.609375 1
vt 0.4921875 1
vt 0.4921875 0.96875
vt 0.609375 0.96875
vt 0.609375 1
vt 0.4921875 1
vt 0.4921875 0.96875
vt 0.03125 0.75
vt 0.03125 1
vt 0 1
vt 0 0.75
vt 0.03125 0.48828125
vt 0.03125 0.7421875
vt 0 0.7421875
vt 0 0.48828125
vt 0.3125 0.88671875
vt 0.28125 0.88671875
vt 0.28125 0.85546875
vt 0.3125 0.85546875
vt 0.3125 0.88671875
vt 0.28125 0.88671875
vt 0.28125 0.85546875
vt 0.3125 0.85546875
vt 0.03125 0.7421875
vt 0.03125 0.48828125
vt 0 0.48828125
vt 0 0.7421875
vt 0.0390625 0.96875
vt 0.2890625 0.96875
vt 0.2890625 1
vt 0.0390625 1
vt 0.03125 0.75
vt 0.03125 1
vt 0 1
vt 0 0.75
vt 0.03125 0.48828125
vt 0.03125 0.7421875
vt 0 0.7421875
vt 0 0.48828125
vt 0.3125 0.88671875
vt 0.28125 0.88671875
vt 0.28125 0.85546875
vt 0.3125 0.85546875
vt 0.3125 0.92578125
vt 0.28125 0.92578125
vt 0.28125 0.89453125
vt 0.3125 0.89453125
vt 0.03125 0.7421875
vt 0.03125 0.48828125
vt 0 0.48828125
vt 0 0.7421875
vt 0.0390625 0.93359375
vt 0.2890625 0.93359375
vt 0.2890625 0.96484375
vt 0.0390625 0.96484375
vt 0.03125 0.48828125
vt 0.03125 0.7421875
vt 0 0.7421875
vt 0 0.48828125
vt 0.03125 0.75
vt 0.03125 1
vt 0 1
vt 0 0.75
vt 0.3125 0.92578125
vt 0.28125 0.92578125
vt 0.28125 0.89453125
vt 0.3125 0.89453125
vt 0.3125 0.84765625
vt 0.28125 0.84765625
vt 0.28125 0.81640625
vt 0.3125 0.81640625
vt 0.03125 0.48828125
vt 0.03125 0.7421875
vt 0 0.7421875
vt 0 0.48828125
vt 0.0390625 0.96875
vt 0.2890625 0.96875
vt 0.2890625 1
vt 0.0390625 1
vt 0.03125 0.48828125
vt 0.03125 0.7421875
vt 0 0.7421875
vt 0 0.48828125
vt 0.03125 0.75
vt 0.03125 1
vt 0 1
vt 0 0.75
vt 0.3125 0.84765625
vt 0.28125 0.84765625
vt 0.28125 0.81640625
vt 0.3125 0.81640625
vt 0.3125 0.84765625
vt 0.28125 0.84765625
vt 0.28125 0.81640625
vt 0.3125 0.81640625
vt 0 0.48828125
vt 0 0.7421875
vt 0.03125 0.7421875
vt 0.03125 0.48828125
vt 0.0390625 0.93359375
vt 0.2890625 0.93359375
vt 0.2890625 0.96484375
vt 0.0390625 0.96484375
vt 0.484375 0.96875
vt 0.484375 1
vt 0.296875 1
vt 0.296875 0.96875
vt 0.484375 0.93359375
vt 0.484375 0.96484375
vt 0.296875 0.96484375
vt 0.296875 0.93359375
vt 0.484375 0.96484375
vt 0.296875 0.96484375
vt 0.296875 0.93359375
vt 0.484375 0.93359375
vt 0.484375 1
vt 0.296875 1
vt 0.296875 0.96875
vt 0.484375 0.96875
vt 0.3125 0.89453125
vt 0.3125 0.92578125
vt 0.28125 0.92578125
vt 0.28125 0.89453125
vt 0.28125 0.89453125
vt 0.3125 0.89453125
vt 0.3125 0.92578125
vt 0.28125 0.92578125
vt 0.484375 0.93359375
vt 0.484375 0.96484375
vt 0.296875 0.96484375
vt 0.296875 0.93359375
vt 0.484375 0.96875
vt 0.484375 1
vt 0.296875 1
vt 0.296875 0.96875
vt 0.484375 0.96484375
vt 0.296875 0.96484375
vt 0.296875 0.93359375
vt 0.484375 0.93359375
vt 0.484375 1
vt 0.296875 1
vt 0.296875 0.96875
vt 0.484375 0.96875
vt 0.3125 0.85546875
vt 0.3125 0.88671875
vt 0.28125 0.88671875
vt 0.28125 0.85546875
vt 0.28125 0.81640625
vt 0.3125 0.81640625
vt 0.3125 0.84765625
vt 0.28125 0.84765625
vt 0.3125 0.85546875
vt 0.3125 0.88671875
vt 0.28125 0.88671875
vt 0.28125 0.85546875
vt 0.3125 0.89453125
vt 0.3125 0.92578125
vt 0.28125 0.92578125
vt 0.28125 0.89453125
vt 0.0703125 0.7265625
vt 0.0390625 0.7265625
vt 0.0390625 0.5390625
vt 0.0703125 0.5390625
vt 0.109375 0.8046875
vt 0.078125 0.8046875
vt 0.078125 0.6171875
vt 0.109375 0.6171875
vt 0.484375 0.96875
vt 0.484375 1
vt 0.296875 1
vt 0.296875 0.96875
vt 0.0390625 0.73828125
vt 0.0703125 0.73828125
vt 0.0703125 0.92578125
vt 0.0390625 0.92578125
vt 0.3125 0.85546875
vt 0.3125 0.88671875
vt 0.28125 0.88671875
vt 0.28125 0.85546875
vt 0.3125 0.81640625
vt 0.3125 0.84765625
vt 0.28125 0.84765625
vt 0.28125 0.81640625
vt 0.109375 0.8046875
vt 0.078125 0.8046875
vt 0.078125 0.6171875
vt 0.109375 0.6171875
vt 0.0703125 0.7265625
vt 0.0390625 0.7265625
vt 0.0390625 0.5390625
vt 0.0703125 0.5390625
vt 0.484375 0.93359375
vt 0.484375 0.96484375
vt 0.296875 0.96484375
vt 0.296875 0.93359375
vt 0.078125 0.6171875
vt 0.109375 0.6171875
vt 0.109375 0.8046875
vt 0.078125 0.8046875
vt 0.2109375 0.8828125
vt 0.1796875 0.8828125
vt 0.1796875 0.8671875
vt 0.2109375 0.8671875
vt 0.2109375 0.8828125
vt 0.1796875 0.8828125
vt 0.1796875 0.8671875
vt 0.2109375 0.8671875
vt 0.1328125 0.796875
vt 0.1171875 0.796875
vt 0.1171875 0.671875
vt 0.1328125 0.671875
vt 0.1328125 0.796875
vt 0.1171875 0.796875
vt 0.1171875 0.671875
vt 0.1328125 0.671875
vt 0.1484375 0.92578125
vt 0.1171875 0.92578125
vt 0.1171875 0.80078125
vt 0.1484375 0.80078125
vt 0.1171875 0.80078125
vt 0.1484375 0.80078125
vt 0.1484375 0.92578125
vt 0.1171875 0.92578125
vt 0.2109375 0.8828125
vt 0.1796875 0.8828125
vt 0.1796875 0.8671875
vt 0.2109375 0.8671875
vt 0.2109375 0.8828125
vt 0.1796875 0.8828125
vt 0.1796875 0.8671875
vt 0.2109375 0.8671875
vt 0.15234375 0.796875
vt 0.13671875 0.796875
vt 0.13671875 0.6796875
vt 0.15234375 0.6796875
vt 0.15234375 0.796875
vt 0.13671875 0.796875
vt 0.13671875 0.6796875
vt 0.15234375 0.6796875
vt 0.109375 0.92578125
vt 0.078125 0.92578125
vt 0.078125 0.80859375
vt 0.109375 0.80859375
vt 0.078125 0.80859375
vt 0.109375 0.80859375
vt 0.109375 0.92578125
vt 0.078125 0.92578125
vt 0.171875 0.8515625
vt 0.171875 0.8828125
vt 0.15625 0.8828125
vt 0.15625 0.8515625
vt 0.171875 0.8515625
vt 0.171875 0.8828125
vt 0.15625 0.8828125
vt 0.15625 0.8515625
vt 0.15234375 0.796875
vt 0.13671875 0.796875
vt 0.13671875 0.6796875
vt 0.15234375 0.6796875
vt 0.2734375 0.890625
vt 0.2734375 0.90625
vt 0.15625 0.90625
vt 0.15625 0.890625
vt 0.609375 0.96875
vt 0.609375 1
vt 0.4921875 1
vt 0.4921875 0.96875
vt 0.609375 0.93359375
vt 0.609375 0.96484375
vt 0.4921875 0.96484375
vt 0.4921875 0.93359375
vn 0.7071067811865475 -0.7071067811865476 0
vn -0.7071067811865475 0.7071067811865476 0
vn 0.7071067811865476 0.7071067811865475 0
vn -0.7071067811865476 -0.7071067811865475 0
vn 0 0 1
vn 0 0 -1
vn 1 -1.1102230246251565e-16 0
vn -1 0 0
vn 6.661338147750939e-16 1 0
vn -3.885780586188048e-16 -1 0
vn 0 0 1
vn 0 0 -1
vn 1 -1.1102230246251565e-16 0
vn -1 0 0
vn 6.661338147750939e-16 1 0
vn -3.885780586188048e-16 -1 0
vn 0 0 1
vn 0 0 -1
vn 1 0 0
vn -1 1.1102230246251565e-16 0
vn -2.220446049250313e-16 1 0
vn -1.1102230246251565e-16 -1 0
vn 0 0 1
vn 0 0 -1
vn 1 0 0
vn -1 1.1102230246251565e-16 0
vn -2.220446049250313e-16 1 0
vn -1.1102230246251565e-16 -1 0
vn 0 0 1
vn 0 0 -1
vn 1 -3.3306690738754696e-16 0
vn -1 1.1102230246251565e-16 0
vn 6.661338147750939e-16 1 0
vn 2.220446049250313e-16 -1 0
vn 0 0 1
vn 0 0 -1
vn 1 5.551115123125783e-16 0
vn -1 1.1102230246251565e-16 0
vn -2.220446049250313e-16 1 0
vn 8.326672684688674e-16 -1 0
vn 0 0 1
vn 0 0 -1
vn 1 -1.1102230246251565e-16 0
vn -1 3.885780586188048e-16 0
vn -1.1102230246251565e-16 1 0
vn -1.1102230246251568e-16 -1 0
vn 0 0 1
vn 0 0 -1
vn 1 -1.1102230246251565e-16 0
vn -1 3.885780586188048e-16 0
vn -1.1102230246251565e-16 1 0
vn -1.1102230246251568e-16 -1 0
vn 0 0 1
vn 0 0 -1
vn 0.7071067811865476 0.7071067811865475 0
vn -0.7071067811865476 -0.7071067811865475 0
vn -0.7071067811865476 0.7071067811865475 0
vn 0.7071067811865475 -0.7071067811865476 0
vn 0 0 1
vn 0 0 -1
vn 0.7071067811865476 0.7071067811865475 0
vn -0.7071067811865476 -0.7071067811865475 0
vn -0.7071067811865475 0.7071067811865476 0
vn 0.7071067811865477 -0.7071067811865474 0
vn 0 0 1
vn 0 0 -1
vn 0.7071067811865475 -0.7071067811865476 0
vn -0.7071067811865481 0.7071067811865469 0
vn 0.7071067811865474 0.7071067811865477 0
vn -0.7071067811865476 -0.7071067811865475 0
vn 0 0 1
vn 0 0 -1
usemtl m_1f590897-cf7e-9b6c-fc50-27641e3bc7a4
f 4/1/1 2/2/1 1/3/1 3/4/1
f 7/5/2 5/6/2 6/7/2 8/8/2
f 1/9/3 2/10/3 6/11/3 5/12/3
f 4/13/4 3/14/4 7/15/4 8/16/4
f 3/17/5 1/18/5 5/19/5 7/20/5
f 8/21/6 6/22/6 2/23/6 4/24/6
f 12/25/7 10/26/7 9/27/7 11/28/7
f 15/29/8 13/30/8 14/31/8 16/32/8
f 9/33/9 10/34/9 14/35/9 13/36/9
f 12/37/10 11/38/10 15/39/10 16/40/10
f 11/41/11 9/42/11 13/43/11 15/44/11
f 16/45/12 14/46/12 10/47/12 12/48/12
f 20/49/13 18/50/13 17/51/13 19/52/13
f 23/53/14 21/54/14 22/55/14 24/56/14
f 17/57/15 18/58/15 22/59/15 21/60/15
f 20/61/16 19/62/16 23/63/16 24/64/16
f 19/65/17 17/66/17 21/67/17 23/68/17
f 24/69/18 22/70/18 18/71/18 20/72/18
f 28/73/19 26/74/19 25/75/19 27/76/19
f 31/77/20 29/78/20 30/79/20 32/80/20
f 25/81/21 26/82/21 30/83/21 29/84/21
f 28/85/22 27/86/22 31/87/22 32/88/22
f 27/89/23 25/90/23 29/91/23 31/92/23
f 32/93/24 30/94/24 26/95/24 28/96/24
f 36/97/25 34/98/25 33/99/25 35/100/25
f 39/101/26 37/102/26 38/103/26 40/104/26
f 33/105/27 34/106/27 38/107/27 37/108/27
f 36/109/28 35/110/28 39/111/28 40/112/28
f 35/113/29 33/114/29 37/115/29 39/116/29
f 40/117/30 38/118/30 34/119/30 36/120/30
f 44/121/31 42/122/31 41/123/31 43/124/31
f 47/125/32 45/126/32 46/127/32 48/128/32
f 41/129/33 42/130/33 46/131/33 45/132/33
f 44/133/34 43/134/34 47/135/34 48/136/34
f 43/137/35 41/138/35 45/139/35 47/140/35
f 48/141/36 46/142/36 42/143/36 44/144/36
f 52/145/37 50/146/37 49/147/37 51/148/37
f 55/149/38 53/150/38 54/151/38 56/152/38
f 49/153/39 50/154/39 54/155/39 53/156/39
f 52/157/40 51/158/40 55/159/40 56/160/40
f 51/161/41 49/162/41 53/163/41 55/164/41
f 56/165/42 54/166/42 50/167/42 52/168/42
f 60/169/43 58/170/43 57/171/43 59/172/43
f 63/173/44 61/174/44 62/175/44 64/176/44
f 57/177/45 58/178/45 62/179/45 61/180/45
f 60/181/46 59/182/46 63/183/46 64/184/46
f 59/185/47 57/186/47 61/187/47 63/188/47
f 64/189/48 62/190/48 58/191/48 60/192/48
f 68/193/49 66/194/49 65/195/49 67/196/49
f 71/197/50 69/198/50 70/199/50 72/200/50
f 65/201/51 66/202/51 70/203/51 69/204/51
f 68/205/52 67/206/52 71/207/52 72/208/52
f 67/209/53 65/210/53 69/211/53 71/212/53
f 72/213/54 70/214/54 66/215/54 68/216/54
f 76/217/55 74/218/55 73/219/55 75/220/55
f 79/221/56 77/222/56 78/223/56 80/224/56
f 73/225/57 74/226/57 78/227/57 77/228/57
f 76/229/58 75/230/58 79/231/58 80/232/58
f 75/233/59 73/234/59 77/235/59 79/236/59
f 80/237/60 78/238/60 74/239/60 76/240/60
f 84/241/61 82/242/61 81/243/61 83/244/61
f 87/245/62 85/246/62 86/247/62 88/248/62
f 81/249/63 82/250/63 86/251/63 85/252/63
f 84/253/64 83/254/64 87/255/64 88/256/64
f 83/257/65 81/258/65 85/259/65 87/260/65
f 88/261/66 86/262/66 82/263/66 84/264/66
f 92/265/67 90/266/67 89/267/67 91/268/67
f 95/269/68 93/270/68 94/271/68 96/272/68
f 89/273/69 90/274/69 94/275/69 93/276/69
f 92/277/70 91/278/70 95/279/70 96/280/70
f 91/281/71 89/282/71 93/283/71 95/284/71
f 96/285/72 94/286/72 90/287/72 92/288/72