# Made in Blockbench 4.12.4
mtllib Obj_Crate_Beer_Holder.mtl

o tube
v 0.06582624879369793 0.25 0.3125000000000001
v 0.06582624879369793 0.25 0.1875000000000001
v 0.05816597980046584 0.19181448029007653 0.3125000000000001
v 0.05816597980046584 0.19181448029007653 0.1875000000000001
v 0.19299279630882285 0.2159258262890683 0.3125000000000001
v 0.19299279630882285 0.21592582628906837 0.1875000000000001
v 0.17053402400182233 0.16170555359125838 0.3125000000000001
v 0.17053402400182233 0.16170555359125838 0.18750000000000008
v 0.30700720369117723 0.1500995774953704 0.3125000000000001
v 0.30700720369117723 0.15009957749537045 0.18750000000000008
v 0.2712804562882542 0.10353957379079248 0.3125000000000001
v 0.2712804562882542 0.10353957379079254 0.18750000000000008
v 0.4000995774953704 0.05700720369117729 0.31250000000000006
v 0.4000995774953704 0.05700720369117729 0.18750000000000006
v 0.35 0.021280456288254257 0.31250000000000006
v 0.35 0.021280456288254257 0.18750000000000006
v 0.453125 0 0.31250000000000006
v 0.453125 5.551115123125783e-17 0.18750000000000006
v 0.35 0 0.31250000000000006
v 0.35 5.551115123125783e-17 0.18750000000000006
v -0.453125 0 0.31250000000000006
v -0.453125 5.551115123125783e-17 0.18750000000000006
v -0.35 0 0.31250000000000006
v -0.35 5.551115123125783e-17 0.18750000000000006
v -0.4000995774953704 0.05700720369117718 0.31250000000000006
v -0.4000995774953704 0.05700720369117723 0.18750000000000006
v -0.35 0.021280456288254146 0.31250000000000006
v -0.35 0.0212804562882542 0.18750000000000006
v -0.30700720369117734 0.15009957749537028 0.3125000000000001
v -0.30700720369117734 0.15009957749537034 0.18750000000000008
v -0.2712804562882543 0.10353957379079237 0.3125000000000001
v -0.2712804562882543 0.10353957379079243 0.18750000000000008
v -0.19299279630882318 0.2159258262890682 0.3125000000000001
v -0.19299279630882318 0.21592582628906826 0.1875000000000001
v -0.17053402400182258 0.16170555359125827 0.3125000000000001
v -0.17053402400182258 0.16170555359125827 0.18750000000000008
v -0.06582624879369799 0.25 0.3125000000000001
v -0.06582624879369799 0.25 0.1875000000000001
v -0.05816597980046589 0.19181448029007653 0.3125000000000001
v -0.05816597980046589 0.19181448029007653 0.1875000000000001
vt 0.609375 0.78125
vt 0.6752 0.78125
vt 0.6752 0.84375
vt 0.609375 0.84375
vt 0.556853125 0.96875
vt 0.498684375 0.96875
vt 0.498684375 0.90625
vt 0.556853125 0.90625
vt 0.443146875 0.75215625
vt 0.499328125 0.737103125
vt 0.5105593749999999 0.7642125
vt 0.446975 0.78125
vt 0.25947499999999996 0.875
vt 0.323059375 0.8920375
vt 0.31182812499999996 0.919146875
vt 0.255646875 0.9040937499999999
vt 0.6752 0.78125
vt 0.741025 0.78125
vt 0.741025 0.84375
vt 0.6752 0.84375
vt 0.498684375 0.96875
vt 0.44051562499999997 0.96875
vt 0.44051562499999997 0.90625
vt 0.498684375 0.90625
vt 0.499328125 0.737103125
vt 0.549703125 0.70801875
vt 0.567565625 0.7313000000000001
vt 0.5105593749999999 0.7642125
vt 0.323059375 0.8920375
vt 0.38006562499999996 0.9249499999999999
vt 0.36220312499999996 0.94823125
vt 0.31182812499999996 0.919146875
vt 0.741025 0.78125
vt 0.8068500000000001 0.78125
vt 0.8068500000000001 0.84375
vt 0.741025 0.84375
vt 0.3125 1
vt 0.25 1
vt 0.25 0.9375
vt 0.3125 0.9375
vt 0.549703125 0.70801875
vt 0.5890625 0.666890625
vt 0.6141125000000001 0.684753125
vt 0.567565625 0.7313000000000001
vt 0.38006562499999996 0.9249499999999999
vt 0.42661249999999995 0.9714968749999999
vt 0.40156249999999993 0.989359375
vt 0.36220312499999996 0.94823125
vt 0.15625 0.65625
vt 0.1875 0.65625
vt 0.1875 0.71875
vt 0.15625 0.71875
vt 0.03125 0.84375
vt 0 0.84375
vt 0 0.78125
vt 0.03125 0.78125
vt 0.5890625 0.666890625
vt 0.5890625 0.65625
vt 0.640625 0.65625
vt 0.6141125000000001 0.684753125
vt 0.42661249999999995 0.9714968749999999
vt 0.453125 1
vt 0.40156249999999993 1
vt 0.40156249999999993 0.989359375
vt 0.125 0.9375
vt 0.163928125 0.9375
vt 0.163928125 1
vt 0.125 1
vt 0.15625 0.71875
vt 0.125 0.71875
vt 0.125 0.65625
vt 0.15625 0.65625
vt 0.2390625 0.65625
vt 0.2390625 0.666890625
vt 0.2140125 0.684753125
vt 0.1875 0.65625
vt 0 1
vt 0.026512499999999994 0.971496875
vt 0.05156250000000001 0.989359375
vt 0.05156250000000001 1
vt 0.163928125 0.9375
vt 0.229753125 0.9375
vt 0.229753125 1
vt 0.163928125 1
vt 0.1875 0.78125
vt 0.125 0.78125
vt 0.125 0.71875
vt 0.1875 0.71875
vt 0.2390625 0.666890625
vt 0.27842187500000004 0.70801875
vt 0.26055937500000004 0.7313000000000001
vt 0.2140125 0.684753125
vt 0.026512499999999994 0.971496875
vt 0.07305937500000001 0.9249499999999999
vt 0.09092187500000001 0.94823125
vt 0.05156250000000001 0.989359375
vt 0.4119 0.78125
vt 0.477725 0.78125
vt 0.477725 0.84375
vt 0.4119 0.84375
vt 0.731359375 0.96875
vt 0.673190625 0.96875
vt 0.673190625 0.90625
vt 0.731359375 0.90625
vt 0.27842187500000004 0.70801875
vt 0.328796875 0.737103125
vt 0.317565625 0.7642125
vt 0.26055937500000004 0.7313000000000001
vt 0.07305937500000001 0.9249499999999999
vt 0.13006562499999996 0.8920375
vt 0.141296875 0.919146875
vt 0.09092187500000001 0.94823125
vt 0.477725 0.78125
vt 0.54355 0.78125
vt 0.54355 0.84375
vt 0.477725 0.84375
vt 0.673190625 0.96875
vt 0.615021875 0.96875
vt 0.615021875 0.90625
vt 0.673190625 0.90625
vt 0.328796875 0.737103125
vt 0.384978125 0.75215625
vt 0.38115 0.78125
vt 0.317565625 0.7642125
vt 0.13006562499999996 0.8920375
vt 0.19365 0.875
vt 0.19747812499999998 0.9040937499999999
vt 0.141296875 0.919146875
vt 0.54355 0.78125
vt 0.609375 0.78125
vt 0.609375 0.84375
vt 0.54355 0.84375
vt 0.615021875 0.96875
vt 0.556853125 0.96875
vt 0.556853125 0.90625
vt 0.615021875 0.90625
vt 0.384978125 0.75215625
vt 0.443146875 0.75215625
vt 0.446975 0.78125
vt 0.38115 0.78125
vt 0.19365 0.875
vt 0.25947499999999996 0.875
vt 0.255646875 0.9040937499999999
vt 0.19747812499999998 0.9040937499999999
vn 0.25881904510252063 0.9659258262890684 2.1447861848524062e-16
vn -0.2588190451025206 -0.9659258262890683 -2.144786184852406e-16
vn 0 -2.220446049250313e-16 1
vn 0 2.220446049250313e-16 -1
vn 0.4999999999999998 0.8660254037844388 1.9229626863835643e-16
vn -0.49999999999999994 -0.8660254037844387 -1.922962686383564e-16
vn 0 -2.220446049250313e-16 1
vn 0 2.220446049250313e-16 -1
vn 0.7071067811865476 0.7071067811865476 1.5700924586837752e-16
vn -0.7224799093415886 -0.6913919153401853 -1.5351984469007214e-16
vn 0 -2.220446049250313e-16 1
vn 0 2.220446049250313e-16 -1
vn 0.7322157821437866 0.681072718863091 1.5122852278517195e-16
vn -1 0 0
vn 0 -2.220446049250313e-16 1
vn 0 2.220446049250313e-16 -1
vn -0.7322157821437862 0.6810727188630913 1.5122852278517202e-16
vn 1 0 0
vn 0 -2.220446049250313e-16 1
vn 0 2.220446049250313e-16 -1
vn -0.7071067811865478 0.7071067811865474 1.5700924586837747e-16
vn 0.7224799093415888 -0.6913919153401851 -1.5351984469007209e-16
vn 0 -2.220446049250313e-16 1
vn 0 2.220446049250313e-16 -1
vn -0.5000000000000006 0.8660254037844384 1.9229626863835633e-16
vn 0.5000000000000006 -0.8660254037844385 -1.9229626863835636e-16
vn 0 -2.220446049250313e-16 1
vn 0 2.220446049250313e-16 -1
vn -0.25881904510252085 0.9659258262890683 2.144786184852406e-16
vn 0.2588190451025211 -0.9659258262890682 -2.1447861848524057e-16
vn 0 -2.220446049250313e-16 1
vn 0 2.220446049250313e-16 -1
vn 0 1 2.220446049250313e-16
vn 0 -1 -2.220446049250313e-16
vn 0 -2.220446049250313e-16 1
vn 0 2.220446049250313e-16 -1
usemtl m_b75e5652-9812-decb-aa1e-56b38f69d0c6
f 1/1/1 5/2/1 6/3/1 2/4/1
f 4/5/2 8/6/2 7/7/2 3/8/2
f 3/9/3 7/10/3 5/11/3 1/12/3
f 2/13/4 6/14/4 8/15/4 4/16/4
f 5/17/5 9/18/5 10/19/5 6/20/5
f 8/21/6 12/22/6 11/23/6 7/24/6
f 7/25/7 11/26/7 9/27/7 5/28/7
f 6/29/8 10/30/8 12/31/8 8/32/8
f 9/33/9 13/34/9 14/35/9 10/36/9
f 12/37/10 16/38/10 15/39/10 11/40/10
f 11/41/11 15/42/11 13/43/11 9/44/11
f 10/45/12 14/46/12 16/47/12 12/48/12
f 13/49/13 17/50/13 18/51/13 14/52/13
f 16/53/14 20/54/14 19/55/14 15/56/14
f 15/57/15 19/58/15 17/59/15 13/60/15
f 14/61/16 18/62/16 20/63/16 16/64/16
f 21/65/17 25/66/17 26/67/17 22/68/17
f 24/69/18 28/70/18 27/71/18 23/72/18
f 23/73/19 27/74/19 25/75/19 21/76/19
f 22/77/20 26/78/20 28/79/20 24/80/20
f 25/81/21 29/82/21 30/83/21 26/84/21
f 28/85/22 32/86/22 31/87/22 27/88/22
f 27/89/23 31/90/23 29/91/23 25/92/23
f 26/93/24 30/94/24 32/95/24 28/96/24
f 29/97/25 33/98/25 34/99/25 30/100/25
f 32/101/26 36/102/26 35/103/26 31/104/26
f 31/105/27 35/106/27 33/107/27 29/108/27
f 30/109/28 34/110/28 36/111/28 32/112/28
f 33/113/29 37/114/29 38/115/29 34/116/29
f 36/117/30 40/118/30 39/119/30 35/120/30
f 35/121/31 39/122/31 37/123/31 33/124/31
f 34/125/32 38/126/32 40/127/32 36/128/32
f 37/129/33 1/130/33 2/131/33 38/132/33
f 40/133/34 4/134/34 3/135/34 39/136/34
f 39/137/35 3/138/35 1/139/35 37/140/35
f 38/141/36 2/142/36 4/143/36 40/144/36
o tube
v 0.06582624879369793 0.25 -0.1874999999999999
v 0.06582624879369793 0.25 -0.3124999999999999
v 0.05816597980046584 0.19181448029007653 -0.1874999999999999
v 0.05816597980046584 0.19181448029007653 -0.3124999999999999
v 0.19299279630882285 0.2159258262890683 -0.1874999999999999
v 0.19299279630882285 0.21592582628906837 -0.3124999999999999
v 0.17053402400182233 0.16170555359125838 -0.1874999999999999
v 0.17053402400182233 0.16170555359125838 -0.3124999999999999
v 0.30700720369117723 0.1500995774953704 -0.18749999999999992
v 0.30700720369117723 0.15009957749537045 -0.3124999999999999
v 0.2712804562882542 0.10353957379079248 -0.18749999999999992
v 0.2712804562882542 0.10353957379079254 -0.3124999999999999
v 0.4000995774953704 0.05700720369117729 -0.18749999999999994
v 0.4000995774953704 0.05700720369117729 -0.31249999999999994
v 0.35 0.021280456288254257 -0.18749999999999994
v 0.35 0.021280456288254257 -0.31249999999999994
v 0.453125 0 -0.18749999999999994
v 0.453125 5.551115123125783e-17 -0.31249999999999994
v 0.35 0 -0.18749999999999994
v 0.35 5.551115123125783e-17 -0.31249999999999994
v -0.453125 0 -0.18749999999999994
v -0.453125 5.551115123125783e-17 -0.31249999999999994
v -0.35 0 -0.18749999999999994
v -0.35 5.551115123125783e-17 -0.31249999999999994
v -0.4000995774953704 0.05700720369117718 -0.18749999999999994
v -0.4000995774953704 0.05700720369117723 -0.31249999999999994
v -0.35 0.021280456288254146 -0.18749999999999994
v -0.35 0.0212804562882542 -0.31249999999999994
v -0.30700720369117734 0.15009957749537028 -0.18749999999999992
v -0.30700720369117734 0.15009957749537034 -0.3124999999999999
v -0.2712804562882543 0.10353957379079237 -0.18749999999999992
v -0.2712804562882543 0.10353957379079243 -0.3124999999999999
v -0.19299279630882318 0.2159258262890682 -0.1874999999999999
v -0.19299279630882318 0.21592582628906826 -0.3124999999999999
v -0.17053402400182258 0.16170555359125827 -0.1874999999999999
v -0.17053402400182258 0.16170555359125827 -0.3124999999999999
v -0.06582624879369799 0.25 -0.1874999999999999
v -0.06582624879369799 0.25 -0.3124999999999999
v -0.05816597980046589 0.19181448029007653 -0.1874999999999999
v -0.05816597980046589 0.19181448029007653 -0.3124999999999999
vt 0.203125 0.5
vt 0.26894999999999997 0.5
vt 0.26894999999999997 0.5625
vt 0.203125 0.5625
vt 0.525603125 0.5625
vt 0.467434375 0.5625
vt 0.467434375 0.5
vt 0.525603125 0.5
vt 0.443146875 0.65840625
vt 0.499328125 0.643353125
vt 0.5105593749999999 0.6704625
vt 0.446975 0.6875
vt 0.25947499999999996 0.78125
vt 0.323059375 0.7982875
vt 0.31182812499999996 0.825396875
vt 0.255646875 0.8103437499999999
vt 0.26894999999999997 0.5
vt 0.334775 0.5
vt 0.334775 0.5625
vt 0.26894999999999997 0.5625
vt 0.467434375 0.5625
vt 0.40926562499999997 0.5625
vt 0.40926562499999997 0.5
vt 0.467434375 0.5
vt 0.499328125 0.643353125
vt 0.549703125 0.61426875
vt 0.567565625 0.6375500000000001
vt 0.5105593749999999 0.6704625
vt 0.323059375 0.7982875
vt 0.38006562499999996 0.8311999999999999
vt 0.36220312499999996 0.85448125
vt 0.31182812499999996 0.825396875
vt 0.334775 0.5
vt 0.4006 0.5
vt 0.4006 0.5625
vt 0.334775 0.5625
vt 0.125 0.71875
vt 0.0625 0.71875
vt 0.0625 0.65625
vt 0.125 0.65625
vt 0.549703125 0.61426875
vt 0.5890625 0.573140625
vt 0.6141125000000001 0.591003125
vt 0.567565625 0.6375500000000001
vt 0.38006562499999996 0.8311999999999999
vt 0.42661249999999995 0.8777468749999999
vt 0.40156249999999993 0.895609375
vt 0.36220312499999996 0.85448125
vt 0.0625 0.59375
vt 0.09375 0.59375
vt 0.09375 0.65625
vt 0.0625 0.65625
vt 0.03125 0.65625
vt 0 0.65625
vt 0 0.59375
vt 0.03125 0.59375
vt 0.5890625 0.573140625
vt 0.5890625 0.5625
vt 0.640625 0.5625
vt 0.6141125000000001 0.591003125
vt 0.42661249999999995 0.8777468749999999
vt 0.453125 0.90625
vt 0.40156249999999993 0.90625
vt 0.40156249999999993 0.895609375
vt 0 0.71875
vt 0.03892812500000001 0.71875
vt 0.03892812500000001 0.78125
vt 0 0.78125
vt 0.0625 0.65625
vt 0.03125 0.65625
vt 0.03125 0.59375
vt 0.0625 0.59375
vt 0.2390625 0.5625
vt 0.2390625 0.573140625
vt 0.2140125 0.591003125
vt 0.1875 0.5625
vt 0 0.90625
vt 0.026512499999999994 0.877746875
vt 0.05156250000000001 0.895609375
vt 0.05156250000000001 0.90625
vt 0.03892812500000001 0.71875
vt 0.104753125 0.71875
vt 0.104753125 0.78125
vt 0.03892812500000001 0.78125
vt 0.0625 0.71875
vt 0 0.71875
vt 0 0.65625
vt 0.0625 0.65625
vt 0.2390625 0.573140625
vt 0.27842187500000004 0.61426875
vt 0.26055937500000004 0.6375500000000001
vt 0.2140125 0.591003125
vt 0.026512499999999994 0.877746875
vt 0.07305937500000001 0.8311999999999999
vt 0.09092187500000001 0.85448125
vt 0.05156250000000001 0.895609375
vt 0.005649999999999988 0.5
vt 0.071475 0.5
vt 0.071475 0.5625
vt 0.005649999999999988 0.5625
vt 0.700109375 0.5625
vt 0.641940625 0.5625
vt 0.641940625 0.5
vt 0.700109375 0.5
vt 0.27842187500000004 0.61426875
vt 0.328796875 0.643353125
vt 0.317565625 0.6704625
vt 0.26055937500000004 0.6375500000000001
vt 0.07305937500000001 0.8311999999999999
vt 0.13006562499999996 0.7982875
vt 0.141296875 0.825396875
vt 0.09092187500000001 0.85448125
vt 0.071475 0.5
vt 0.13729999999999998 0.5
vt 0.13729999999999998 0.5625
vt 0.071475 0.5625
vt 0.641940625 0.5625
vt 0.583771875 0.5625
vt 0.583771875 0.5
vt 0.641940625 0.5
vt 0.328796875 0.643353125
vt 0.384978125 0.65840625
vt 0.38115 0.6875
vt 0.317565625 0.6704625
vt 0.13006562499999996 0.7982875
vt 0.19365 0.78125
vt 0.19747812499999998 0.8103437499999999
vt 0.141296875 0.825396875
vt 0.13729999999999998 0.5
vt 0.203125 0.5
vt 0.203125 0.5625
vt 0.13729999999999998 0.5625
vt 0.583771875 0.5625
vt 0.525603125 0.5625
vt 0.525603125 0.5
vt 0.583771875 0.5
vt 0.384978125 0.65840625
vt 0.443146875 0.65840625
vt 0.446975 0.6875
vt 0.38115 0.6875
vt 0.19365 0.78125
vt 0.25947499999999996 0.78125
vt 0.255646875 0.8103437499999999
vt 0.19747812499999998 0.8103437499999999
vn 0.25881904510252063 0.9659258262890684 2.1447861848524062e-16
vn -0.2588190451025206 -0.9659258262890683 -2.144786184852406e-16
vn 0 -2.220446049250313e-16 1
vn 0 2.220446049250313e-16 -1
vn 0.4999999999999998 0.8660254037844388 1.9229626863835643e-16
vn -0.49999999999999994 -0.8660254037844387 -1.922962686383564e-16
vn 0 -2.220446049250313e-16 1
vn 0 2.220446049250313e-16 -1
vn 0.7071067811865476 0.7071067811865476 1.5700924586837752e-16
vn -0.7224799093415886 -0.6913919153401853 -1.5351984469007214e-16
vn 0 -2.220446049250313e-16 1
vn 0 2.220446049250313e-16 -1
vn 0.7322157821437866 0.681072718863091 1.5122852278517195e-16
vn -1 0 0
vn 0 -2.220446049250313e-16 1
vn 0 2.220446049250313e-16 -1
vn -0.7322157821437862 0.6810727188630913 1.5122852278517202e-16
vn 1 0 0
vn 0 -2.220446049250313e-16 1
vn 0 2.220446049250313e-16 -1
vn -0.7071067811865478 0.7071067811865474 1.5700924586837747e-16
vn 0.7224799093415888 -0.6913919153401851 -1.5351984469007209e-16
vn 0 -2.220446049250313e-16 1
vn 0 2.220446049250313e-16 -1
vn -0.5000000000000006 0.8660254037844384 1.9229626863835633e-16
vn 0.5000000000000006 -0.8660254037844385 -1.9229626863835636e-16
vn 0 -2.220446049250313e-16 1
vn 0 2.220446049250313e-16 -1
vn -0.25881904510252085 0.9659258262890683 2.144786184852406e-16
vn 0.2588190451025211 -0.9659258262890682 -2.1447861848524057e-16
vn 0 -2.220446049250313e-16 1
vn 0 2.220446049250313e-16 -1
vn 0 1 2.220446049250313e-16
vn 0 -1 -2.220446049250313e-16
vn 0 -2.220446049250313e-16 1
vn 0 2.220446049250313e-16 -1
usemtl m_b75e5652-9812-decb-aa1e-56b38f69d0c6
f 41/145/37 45/146/37 46/147/37 42/148/37
f 44/149/38 48/150/38 47/151/38 43/152/38
f 43/153/39 47/154/39 45/155/39 41/156/39
f 42/157/40 46/158/40 48/159/40 44/160/40
f 45/161/41 49/162/41 50/163/41 46/164/41
f 48/165/42 52/166/42 51/167/42 47/168/42
f 47/169/43 51/170/43 49/171/43 45/172/43
f 46/173/44 50/174/44 52/175/44 48/176/44
f 49/177/45 53/178/45 54/179/45 50/180/45
f 52/181/46 56/182/46 55/183/46 51/184/46
f 51/185/47 55/186/47 53/187/47 49/188/47
f 50/189/48 54/190/48 56/191/48 52/192/48
f 53/193/49 57/194/49 58/195/49 54/196/49
f 56/197/50 60/198/50 59/199/50 55/200/50
f 55/201/51 59/202/51 57/203/51 53/204/51
f 54/205/52 58/206/52 60/207/52 56/208/52
f 61/209/53 65/210/53 66/211/53 62/212/53
f 64/213/54 68/214/54 67/215/54 63/216/54
f 63/217/55 67/218/55 65/219/55 61/220/55
f 62/221/56 66/222/56 68/223/56 64/224/56
f 65/225/57 69/226/57 70/227/57 66/228/57
f 68/229/58 72/230/58 71/231/58 67/232/58
f 67/233/59 71/234/59 69/235/59 65/236/59
f 66/237/60 70/238/60 72/239/60 68/240/60
f 69/241/61 73/242/61 74/243/61 70/244/61
f 72/245/62 76/246/62 75/247/62 71/248/62
f 71/249/63 75/250/63 73/251/63 69/252/63
f 70/253/64 74/254/64 76/255/64 72/256/64
f 73/257/65 77/258/65 78/259/65 74/260/65
f 76/261/66 80/262/66 79/263/66 75/264/66
f 75/265/67 79/266/67 77/267/67 73/268/67
f 74/269/68 78/270/68 80/271/68 76/272/68
f 77/273/69 41/274/69 42/275/69 78/276/69
f 80/277/70 44/278/70 43/279/70 79/280/70
f 79/281/71 43/282/71 41/283/71 77/284/71
f 78/285/72 42/286/72 44/287/72 80/288/72